# xmcd
#
# Track frame offsets: 
#        150
#        30711
#        51821
#        81556
#        100525
#        125572
#        157659
#        179269
#        195005
#        215687
#        249169
#        270908
#        309724
#
# Disc length: 4414 seconds
#
# Revision: 14
# Processed by: cddbd v1.5.2PL0 Copyright (c) Steve Scherf et al.
# Submitted via: ExactAudioCopy v1.3
#
DISCID=9f113c0d
DTITLE=Joaquin Sabina - 19 dias y 500 noches
DYEAR=1999
DGENRE=Blues
TTITLE0=Ahora que..
TTITLE1=19 dias y 500 noches
TTITLE2=Barbi Superestar
TTITLE3=Una cancion para la Magdalena
TTITLE4=Dieguitos y Mafaldas
TTITLE5=A mis cuarenta y diez
TTITLE6=El caso de la rubia platino
TTITLE7=Donde habita el olvido
TTITLE8=Cerrado por derribo
TTITLE9=Pero que hermosas eran
TTITLE10=De purisima y oro
TTITLE11=Como te digo una "co" te digo la "o"
TTITLE12=Noches de boda
EXTD=YEAR: 1999
EXTT0=
EXTT1=
EXTT2=
EXTT3=
EXTT4=
EXTT5=
EXTT6=
EXTT7=
EXTT8=
EXTT9=
EXTT10=
EXTT11=
EXTT12=
PLAYORDER=
